<svg xmlns="http://www.w3.org/2000/svg" viewBox="0 0 1200 680" role="img" aria-label="Секретне розкриття">
  <defs>
    <linearGradient id="bg7" x1="0" y1="0" x2="1" y2="1">
      <stop offset="0%" stop-color="#07180f" />
      <stop offset="58%" stop-color="#0b231c" />
      <stop offset="100%" stop-color="#121726" />
    </linearGradient>
  </defs>
  <rect width="1200" height="680" fill="url(#bg7)" />
  <path d="M0 550 Q 250 465 420 560 T 830 558 T 1200 545 V680 H0 Z" fill="#58f0da" opacity="0.24" />
  <path d="M0 605 Q 290 522 545 610 T 1200 585 V680 H0 Z" fill="#ff9f7e" opacity="0.18" />
  <circle cx="230" cy="220" r="92" fill="#63df8e" opacity="0.24" />
  <circle cx="972" cy="200" r="84" fill="#ff6d90" opacity="0.21" />

  <g fill="#ff8fb6" opacity="0.78">
    <path d="M560 190 l16 -16 a14 14 0 0 1 20 20 l-36 36 l-36 -36 a14 14 0 1 1 20 -20z" />
    <path d="M690 244 l11 -11 a10 10 0 0 1 14 14 l-25 25 l-25 -25 a10 10 0 1 1 14 -14z" />
  </g>

  <text x="600" y="295" text-anchor="middle" font-size="76" font-family="Exo 2, Segoe UI, sans-serif" font-weight="700" fill="#ebfff5">Секрет відкрито</text>
  <text x="600" y="373" text-anchor="middle" font-size="42" font-family="Manrope, Segoe UI, sans-serif" fill="#b7dfd0">Ти пам'ятаєш деталі.</text>
</svg>
